<svg xmlns="http://www.w3.org/2000/svg" viewBox="0 0 1200 310" role="img" aria-labelledby="title desc">
  <title id="title">Julio Evangelista, Full Stack Developer</title><desc id="desc">Banner escuro com detalhes laranja e uma coruja geométrica.</desc>
  <defs><linearGradient id="glow" x1="0" x2="1"><stop offset="0" stop-color="#fe6a2f" stop-opacity="0"/><stop offset=".45" stop-color="#fe6a2f"/><stop offset="1" stop-color="#fe6a2f" stop-opacity="0"/></linearGradient><filter id="blur"><feGaussianBlur stdDeviation="7"/></filter></defs>
  <rect width="1200" height="310" rx="28" fill="#1e1e1e"/><path d="M0 50H370" stroke="#fe6a2f" stroke-width="2" opacity=".72"/><path d="M830 260H1200" stroke="#fe6a2f" stroke-width="2" opacity=".72"/><path d="M-40 244C160 198 207 293 396 238S671 137 855 195 1075 255 1240 114" fill="none" stroke="url(#glow)" stroke-width="3"/>
  <circle cx="146" cy="224" r="70" fill="#fe6a2f" opacity=".1" filter="url(#blur)"><animate attributeName="opacity" values=".05;.19;.05" dur="3.8s" repeatCount="indefinite"/></circle>
  <g transform="translate(94 172)"><circle cx="52" cy="52" r="52" fill="#f5f5f4"/><path d="M15 44c15-18 34-16 37 8 6-22 22-30 40-11 8 12-3 31-14 42-14 14-35 19-52 7C10 79 5 58 15 44Z" fill="#1e1e1e"/><path d="M22 49c8-2 13 3 14 11-8 1-14-2-14-11Zm59 0c-8-2-13 3-14 11 8 1 14-2 14-11Z" fill="#f5f5f4"/><path d="m52 62 7 7-7 13-7-13 7-7Z" fill="#fe6a2f"/><path d="M28 29c7-10 15-14 24-14-9 8-13 13-16 20Zm48 0C69 19 61 15 52 15c9 8 13 13 16 20Z" fill="#1e1e1e"/></g>
  <text x="250" y="126" fill="#f5f5f4" font-family="Arial, Helvetica, sans-serif" font-size="18" letter-spacing="5">FULL STACK DEVELOPER</text><text x="250" y="184" fill="#f5f5f4" font-family="Georgia, serif" font-size="55">Julio Evangelista</text><text x="253" y="225" fill="#bdbab4" font-family="Arial, Helvetica, sans-serif" font-size="18">Produtos web com direção, código e propósito.</text>
  <g fill="#fe6a2f"><circle cx="1020" cy="84" r="4"><animate attributeName="r" values="3;6;3" dur="2.5s" repeatCount="indefinite"/></circle><circle cx="1050" cy="84" r="4" opacity=".65"><animate attributeName="r" values="6;3;6" dur="2.5s" repeatCount="indefinite"/></circle><circle cx="1080" cy="84" r="4" opacity=".3"><animate attributeName="r" values="3;6;3" dur="2.5s" repeatCount="indefinite"/></circle></g><text x="1016" y="119" fill="#bdbab4" font-family="Arial, Helvetica, sans-serif" font-size="13" letter-spacing="2">SÃO PAULO · BR</text>
</svg>
